<svg width="162" height="158" viewBox="0 0 162 158" fill="none" xmlns="http://www.w3.org/2000/svg">
  <g clip-path="url(#clip0_0_1)">
    <g opacity="0.5" clip-path="url(#clip1_0_1)">
      <path d="M55.6366 148.266C55.6366 148.266 55.6594 148.369 55.6822 148.415H55.5682C55.5682 148.415 55.6138 148.312 55.6366 148.266Z" fill="#CFB37C" />
      <path d="M71.2089 131.827C67.9395 131.758 64.9094 132.878 62.5741 134.786C62.0956 135.174 61.6514 135.585 61.2413 136.031C61.1159 136.168 60.9906 136.305 60.8653 136.454C60.6261 136.739 60.3983 137.036 60.1818 137.345C58.7807 139.332 57.9377 141.732 57.8807 144.325C57.7326 151.362 63.4626 157.212 70.6621 157.36C73.4303 157.417 76.0162 156.629 78.1692 155.224C78.3173 155.132 78.454 155.03 78.5907 154.938C78.7388 154.835 78.8869 154.721 79.0236 154.618C79.3539 154.367 79.6729 154.093 79.969 153.807C80.4133 153.385 80.8234 152.939 81.2107 152.471C82.8967 150.368 83.9333 147.741 83.9903 144.862C84.1384 137.824 78.4084 131.975 71.2089 131.827ZM79.8779 152.539C79.4906 152.962 79.0691 153.35 78.6248 153.716C78.4881 153.83 78.3514 153.933 78.2148 154.036C77.8274 154.321 77.4173 154.596 76.9845 154.835C75.1276 155.886 72.9746 156.469 70.6735 156.423C63.998 156.286 58.6895 150.871 58.8376 144.348C58.906 141.4 60.0679 138.716 61.9589 136.682C62.3462 136.259 62.7677 135.871 63.212 135.505C63.3487 135.402 63.4854 135.288 63.6221 135.185C64.0094 134.888 64.4195 134.626 64.8524 134.386C66.7092 133.323 68.8736 132.729 71.1861 132.786C77.8502 132.923 83.1587 138.339 83.022 144.85C82.9536 147.809 81.7803 150.506 79.8779 152.551V152.539Z" fill="#CFB37C" />
      <path d="M71.1406 135.105C68.4408 135.048 65.9688 136.077 64.169 137.779C64.0095 137.927 63.85 138.087 63.7019 138.247C63.6449 138.304 63.5994 138.361 63.5424 138.419C63.4855 138.476 63.4399 138.533 63.3943 138.59C63.3146 138.693 63.2234 138.796 63.1437 138.898C61.9476 140.441 61.2299 142.349 61.1843 144.428C61.0704 149.683 65.3537 154.047 70.7305 154.161C73.0088 154.207 75.1391 153.487 76.825 152.219C76.9389 152.139 77.0529 152.048 77.1554 151.956C77.5085 151.671 77.8389 151.362 78.1351 151.031C78.2376 150.928 78.3287 150.825 78.4198 150.711C79.7868 149.112 80.6298 147.067 80.6868 144.816C80.8007 139.561 76.5174 135.197 71.1406 135.083V135.105ZM77.5541 150.277C77.463 150.38 77.3718 150.471 77.2807 150.563C77.0984 150.757 76.9048 150.94 76.6997 151.111C76.5972 151.191 76.4947 151.282 76.3921 151.362C74.8429 152.562 72.8721 153.27 70.7533 153.225C65.9119 153.122 62.0501 149.192 62.1526 144.451C62.1982 142.246 63.0981 140.246 64.5449 138.75C64.7499 138.544 64.955 138.339 65.1828 138.156C66.7662 136.796 68.8623 135.997 71.1292 136.042C75.9706 136.145 79.8324 140.075 79.7299 144.805C79.6843 146.895 78.8755 148.803 77.5655 150.266L77.5541 150.277Z" fill="#CFB37C" />
      <path d="M71.0722 138.339C69.2951 138.304 67.6661 138.978 66.4813 140.098L66.4586 140.121C65.2852 141.229 64.5334 142.783 64.4992 144.508C64.4195 147.981 67.256 150.871 70.8101 150.94C72.1544 150.963 73.4188 150.586 74.4669 149.911C74.6149 149.82 74.763 149.717 74.8997 149.603C75.2301 149.34 75.5377 149.055 75.8111 148.746C75.925 148.609 76.0389 148.472 76.1414 148.335C76.8819 147.33 77.3375 146.107 77.3717 144.782C77.4515 141.309 74.6149 138.43 71.0608 138.35L71.0722 138.339ZM75.2301 147.958C75.1845 148.026 75.1276 148.095 75.0592 148.152C74.8428 148.403 74.5922 148.632 74.3188 148.838C74.2504 148.895 74.1821 148.94 74.1137 148.986C73.191 149.637 72.0404 150.014 70.8101 149.98C67.7914 149.923 65.3877 147.467 65.4561 144.508C65.4903 143.125 66.0485 141.869 66.9598 140.943C67.0737 140.829 67.1876 140.715 67.3129 140.612C68.304 139.755 69.6254 139.241 71.0494 139.275C74.0681 139.332 76.4718 141.789 76.4034 144.736C76.3806 145.947 75.9478 147.055 75.2187 147.935L75.2301 147.958Z" fill="#CFB37C" />
      <path d="M71.0039 141.583C70.2521 141.572 69.5458 141.812 68.999 142.246C68.8281 142.371 68.68 142.52 68.5433 142.68C68.099 143.194 67.8257 143.857 67.8029 144.588C67.7687 146.279 69.1471 147.684 70.8672 147.718C71.5735 147.729 72.2228 147.524 72.7582 147.147C72.8721 147.067 72.9747 146.987 73.0772 146.884C73.1114 146.85 73.1455 146.815 73.1797 146.781C73.7151 146.244 74.0455 145.525 74.0569 144.713C74.091 143.023 72.724 141.617 70.9925 141.583H71.0039ZM72.5532 146.05C72.4734 146.141 72.3823 146.233 72.2798 146.313C71.9038 146.61 71.414 146.781 70.89 146.77C69.6939 146.747 68.737 145.776 68.7712 144.611C68.7712 144.096 68.9762 143.639 69.2952 143.274C69.3749 143.171 69.4774 143.091 69.5686 143.011C69.9559 142.703 70.4457 142.52 70.9811 142.531C72.1772 142.554 73.1227 143.525 73.1 144.691C73.1 145.216 72.8835 145.684 72.5532 146.05Z" fill="#CFB37C" />
      <path d="M123.155 127.908C123.155 125.269 122.824 122.698 122.175 120.254C122.072 119.854 121.947 119.454 121.833 119.054C121.4 118.917 120.979 118.768 120.557 118.609C120.705 119.02 120.842 119.443 120.956 119.865C121.708 122.424 122.095 125.12 122.095 127.897C122.05 143.959 108.653 156.995 92.2264 156.949C88.9912 156.949 85.8813 156.423 82.9651 155.475C82.5322 155.338 82.1107 155.19 81.6892 155.03C81.8373 155.441 81.974 155.864 82.0879 156.286C82.4866 156.423 82.8967 156.561 83.3068 156.675C86.1319 157.52 89.1165 157.977 92.215 157.977C109.234 158.023 123.12 144.519 123.155 127.885V127.908Z" fill="#CFB37C" />
      <path d="M119.862 127.897C119.862 124.926 119.384 122.07 118.484 119.397C118.188 119.614 117.892 119.82 117.573 120.025C118.382 122.504 118.814 125.155 118.803 127.897C118.769 142.189 106.842 153.784 92.2264 153.739C89.0254 153.739 85.9383 153.167 83.1018 152.128C82.9081 152.425 82.7031 152.722 82.4752 153.008C85.5054 154.139 88.7862 154.767 92.2264 154.778C107.434 154.813 119.828 142.748 119.874 127.885L119.862 127.897Z" fill="#CFB37C" />
      <path d="M115.761 121.008C115.442 121.145 115.112 121.282 114.77 121.408C115.385 123.452 115.704 125.612 115.693 127.851C115.659 140.498 105.11 150.757 92.1694 150.734C89.4696 150.734 86.8723 150.277 84.4573 149.443C84.332 149.763 84.2067 150.083 84.0586 150.403C86.5989 151.282 89.3215 151.762 92.1694 151.774C105.691 151.808 116.718 141.08 116.752 127.862C116.752 125.486 116.411 123.19 115.75 121.019L115.761 121.008Z" fill="#CFB37C" />
      <path d="M112.971 121.922C112.629 122.002 112.287 122.059 111.934 122.116C112.458 123.898 112.743 125.783 112.731 127.725C112.709 138.841 103.436 147.855 92.067 147.821C89.652 147.821 87.3281 147.398 85.1865 146.644C85.1409 146.987 85.0725 147.33 84.9928 147.661C87.2028 148.415 89.5836 148.826 92.067 148.838C104.005 148.872 113.745 139.39 113.779 127.714C113.779 125.703 113.506 123.75 112.971 121.91V121.922Z" fill="#CFB37C" />
      <path d="M110.066 95.4169C106.796 95.3484 103.766 96.468 101.431 98.3759C100.952 98.7643 100.508 99.1756 100.098 99.6211C99.9728 99.7582 99.8475 99.8953 99.7222 100.044C99.4829 100.329 99.2551 100.626 99.0387 100.935C97.6375 102.923 96.7945 105.322 96.7375 107.915C96.5895 114.953 102.319 120.802 109.519 120.951C112.287 121.008 114.873 120.219 117.026 118.814C117.174 118.723 117.311 118.62 117.447 118.529C117.596 118.426 117.744 118.312 117.88 118.209C118.211 117.957 118.53 117.683 118.826 117.398C119.27 116.975 119.68 116.529 120.068 116.061C121.754 113.959 122.79 111.331 122.847 108.452C122.995 101.415 117.265 95.5654 110.066 95.4169ZM118.735 116.129C118.347 116.552 117.926 116.941 117.482 117.306C117.345 117.42 117.208 117.523 117.072 117.626C116.684 117.912 116.274 118.186 115.841 118.426C113.984 119.477 111.831 120.059 109.53 120.014C102.855 119.877 97.5464 114.461 97.6944 107.938C97.7628 104.991 98.9247 102.306 100.816 100.272C101.203 99.8496 101.625 99.4612 102.069 99.0956C102.206 98.9928 102.342 98.8785 102.479 98.7757C102.866 98.4787 103.276 98.2159 103.709 97.976C105.566 96.9135 107.73 96.3195 110.043 96.3766C116.707 96.5137 122.016 101.929 121.879 108.441C121.81 111.4 120.637 114.096 118.735 116.141V116.129Z" fill="#CFB37C" />
      <path d="M109.986 98.7071C107.286 98.65 104.814 99.6782 103.014 101.38C102.855 101.529 102.695 101.689 102.547 101.849C102.49 101.906 102.445 101.963 102.388 102.02C102.331 102.077 102.285 102.134 102.24 102.192C102.16 102.294 102.069 102.397 101.989 102.5C100.793 104.042 100.075 105.95 100.03 108.029C99.9158 113.285 104.199 117.649 109.576 117.763C111.854 117.809 113.984 117.089 115.67 115.821C115.784 115.741 115.898 115.65 116.001 115.558C116.354 115.273 116.684 114.964 116.98 114.633C117.083 114.53 117.174 114.427 117.265 114.313C118.632 112.714 119.475 110.669 119.532 108.418C119.646 103.163 115.363 98.7985 109.986 98.6843V98.7071ZM116.399 113.879C116.308 113.982 116.217 114.073 116.126 114.164C115.944 114.359 115.75 114.541 115.545 114.713C115.443 114.793 115.34 114.884 115.237 114.964C113.688 116.164 111.717 116.872 109.599 116.826C104.757 116.723 100.895 112.793 100.998 108.052C101.044 105.847 101.943 103.848 103.39 102.352C103.595 102.146 103.8 101.94 104.028 101.757C105.612 100.398 107.708 99.5983 109.975 99.644C114.816 99.7468 118.678 103.677 118.575 108.406C118.53 110.497 117.721 112.405 116.411 113.867L116.399 113.879Z" fill="#CFB37C" />
      <path d="M109.918 101.94C108.141 101.906 106.512 102.58 105.327 103.7L105.304 103.722C104.131 104.831 103.379 106.384 103.345 108.109C103.265 111.582 106.101 114.473 109.656 114.541C111 114.564 112.264 114.187 113.312 113.513C113.46 113.422 113.608 113.319 113.745 113.205C114.076 112.942 114.383 112.656 114.657 112.348C114.77 112.211 114.884 112.074 114.987 111.937C115.727 110.931 116.183 109.709 116.217 108.384C116.297 104.911 113.46 102.032 109.906 101.952L109.918 101.94ZM114.076 111.56C114.03 111.628 113.973 111.697 113.905 111.754C113.688 112.005 113.438 112.234 113.164 112.439C113.096 112.496 113.028 112.542 112.959 112.588C112.036 113.239 110.886 113.616 109.656 113.582C106.637 113.525 104.233 111.068 104.302 108.109C104.336 106.727 104.894 105.47 105.805 104.545C105.919 104.431 106.033 104.317 106.158 104.214C107.149 103.357 108.471 102.843 109.895 102.877C112.914 102.934 115.317 105.39 115.249 108.338C115.226 109.549 114.793 110.657 114.064 111.537L114.076 111.56Z" fill="#CFB37C" />
      <path d="M109.849 105.173C109.097 105.162 108.391 105.402 107.844 105.836C107.673 105.962 107.525 106.11 107.389 106.27C106.944 106.784 106.671 107.447 106.648 108.178C106.614 109.869 107.992 111.274 109.713 111.308C110.419 111.32 111.068 111.114 111.604 110.737C111.717 110.657 111.82 110.577 111.923 110.474C111.957 110.44 111.991 110.406 112.025 110.372C112.56 109.835 112.891 109.115 112.902 108.304C112.936 106.613 111.569 105.208 109.838 105.173H109.849ZM111.399 109.64C111.319 109.732 111.228 109.823 111.125 109.903C110.749 110.2 110.259 110.372 109.735 110.36C108.539 110.337 107.582 109.366 107.616 108.201C107.616 107.687 107.822 107.23 108.141 106.864C108.22 106.761 108.323 106.681 108.414 106.601C108.801 106.293 109.291 106.11 109.826 106.122C111.023 106.144 111.968 107.116 111.945 108.281C111.945 108.806 111.729 109.275 111.399 109.64Z" fill="#CFB37C" />
      <path d="M162 91.4983C162 88.8593 161.67 86.2888 161.02 83.844C160.918 83.4441 160.792 83.0443 160.679 82.6444C160.246 82.5073 159.824 82.3588 159.403 82.1989C159.551 82.6101 159.687 83.0328 159.801 83.4555C160.553 86.0146 160.941 88.7108 160.941 91.4869C160.895 107.55 147.498 120.585 131.072 120.539C127.837 120.539 124.727 120.014 121.81 119.066C121.378 118.928 120.956 118.78 120.535 118.62C120.683 119.031 120.819 119.454 120.933 119.877C121.332 120.014 121.742 120.151 122.152 120.265C124.977 121.11 127.962 121.567 131.06 121.567C148.079 121.613 161.966 108.109 162 91.4755V91.4983Z" fill="#CFB37C" />
      <path d="M158.708 91.4983C158.708 88.528 158.229 85.6719 157.329 82.9986C157.033 83.2156 156.737 83.4213 156.418 83.6269C157.227 86.106 157.66 88.7565 157.648 91.4983C157.614 105.79 145.687 117.386 131.072 117.34C127.871 117.34 124.784 116.769 121.947 115.73C121.753 116.027 121.548 116.324 121.321 116.609C124.351 117.74 127.632 118.369 131.072 118.38C146.28 118.414 158.674 106.35 158.719 91.4869L158.708 91.4983Z" fill="#CFB37C" />
      <path d="M154.607 84.598C154.288 84.7351 153.958 84.8722 153.616 84.9978C154.231 87.0428 154.55 89.202 154.539 91.4412C154.504 104.088 143.956 114.347 131.015 114.324C128.315 114.324 125.718 113.867 123.303 113.033C123.177 113.353 123.052 113.673 122.904 113.993C125.444 114.873 128.167 115.353 131.015 115.364C144.537 115.398 155.564 104.671 155.598 91.4526C155.598 89.0764 155.256 86.78 154.595 84.6094L154.607 84.598Z" fill="#CFB37C" />
      <path d="M151.816 85.5119C151.474 85.5919 151.132 85.649 150.779 85.7061C151.303 87.4883 151.588 89.3734 151.577 91.3155C151.554 102.432 142.281 111.445 130.912 111.411C128.497 111.411 126.173 110.988 124.032 110.234C123.986 110.577 123.918 110.92 123.838 111.251C126.048 112.005 128.429 112.416 130.912 112.428C142.851 112.462 152.591 102.98 152.625 91.3041C152.625 89.2934 152.351 87.3398 151.816 85.5005V85.5119Z" fill="#CFB37C" />
      <path d="M148.911 59.0186C145.642 58.9501 142.612 60.0697 140.276 61.9776C139.798 62.366 139.354 62.7773 138.943 63.2228C138.818 63.3599 138.693 63.497 138.567 63.6455C138.328 63.9312 138.1 64.2282 137.884 64.5367C136.483 66.5245 135.64 68.9236 135.583 71.517C135.435 78.5544 141.165 84.4038 148.364 84.5523C151.132 84.6094 153.718 83.8211 155.871 82.4159C156.019 82.3245 156.156 82.2217 156.293 82.1303C156.441 82.0275 156.589 81.9132 156.726 81.8104C157.056 81.5591 157.375 81.2849 157.671 80.9993C158.115 80.5766 158.526 80.131 158.913 79.6626C160.599 77.5605 161.635 74.9329 161.692 72.0539C161.841 65.0165 156.111 59.1672 148.911 59.0186ZM157.58 79.7312C157.193 80.1539 156.771 80.5423 156.327 80.9079C156.19 81.0221 156.054 81.1249 155.917 81.2278C155.53 81.5134 155.119 81.7876 154.687 82.0275C152.83 83.0785 150.677 83.6612 148.376 83.6155C141.7 83.4784 136.392 78.0632 136.54 71.5398C136.608 68.5923 137.77 65.9076 139.661 63.874C140.048 63.4513 140.47 63.0629 140.914 62.6973C141.051 62.5945 141.188 62.4803 141.324 62.3774C141.712 62.0804 142.122 61.8176 142.555 61.5777C144.411 60.5153 146.576 59.9212 148.888 59.9783C155.552 60.1154 160.861 65.5306 160.724 72.0425C160.656 75.0014 159.482 77.6976 157.58 79.7426V79.7312Z" fill="#CFB37C" />
      <path d="M148.843 62.2975C146.143 62.2403 143.671 63.2685 141.871 64.9708C141.712 65.1193 141.552 65.2792 141.404 65.4392C141.347 65.4963 141.302 65.5534 141.245 65.6106C141.188 65.6677 141.142 65.7248 141.096 65.7819C141.017 65.8847 140.926 65.9876 140.846 66.0904C139.65 67.6327 138.932 69.5406 138.886 71.6198C138.773 76.875 143.056 81.2392 148.433 81.3534C150.711 81.3991 152.841 80.6794 154.527 79.4113C154.641 79.3313 154.755 79.2399 154.858 79.1485C155.211 78.8629 155.541 78.5544 155.837 78.2231C155.94 78.1203 156.031 78.0175 156.122 77.9033C157.489 76.3038 158.332 74.2589 158.389 72.0082C158.503 66.753 154.22 62.3889 148.843 62.2746V62.2975ZM155.256 77.4691C155.165 77.5719 155.074 77.6633 154.983 77.7547C154.801 77.9489 154.607 78.1317 154.402 78.3031C154.299 78.3831 154.197 78.4745 154.094 78.5544C152.545 79.754 150.574 80.4623 148.455 80.4166C143.614 80.3138 139.752 76.3838 139.855 71.6427C139.9 69.4377 140.8 67.4385 142.247 65.9419C142.452 65.7362 142.657 65.5306 142.885 65.3478C144.468 63.9883 146.564 63.1886 148.831 63.2343C153.673 63.3371 157.535 67.2671 157.432 71.9968C157.386 74.0875 156.578 75.9954 155.268 77.4577L155.256 77.4691Z" fill="#CFB37C" />
      <path d="M148.774 65.5306C146.997 65.4963 145.368 66.1704 144.183 67.29L144.161 67.3128C142.987 68.421 142.236 69.9747 142.201 71.6998C142.122 75.1728 144.958 78.0632 148.512 78.1317C149.856 78.1546 151.121 77.7776 152.169 77.1035C152.317 77.0121 152.465 76.9093 152.602 76.7951C152.932 76.5323 153.24 76.2467 153.513 75.9383C153.627 75.8012 153.741 75.6641 153.844 75.527C154.584 74.5216 155.04 73.2992 155.074 71.974C155.154 68.5009 152.317 65.622 148.763 65.542L148.774 65.5306ZM152.932 75.15C152.887 75.2185 152.83 75.2871 152.761 75.3442C152.545 75.5955 152.294 75.824 152.021 76.0297C151.953 76.0868 151.884 76.1325 151.816 76.1782C150.893 76.8294 149.743 77.2064 148.512 77.1721C145.494 77.115 143.09 74.6587 143.158 71.6998C143.192 70.3174 143.751 69.0607 144.662 68.1354C144.776 68.0211 144.89 67.9069 145.015 67.8041C146.006 66.9472 147.328 66.4331 148.752 66.4674C151.77 66.5245 154.174 68.9808 154.106 71.9283C154.083 73.1393 153.65 74.2474 152.921 75.1271L152.932 75.15Z" fill="#CFB37C" />
      <path d="M148.695 68.7637C147.943 68.7523 147.236 68.9922 146.69 69.4263C146.519 69.552 146.371 69.7005 146.234 69.8604C145.79 70.3745 145.516 71.0372 145.494 71.7683C145.459 73.4591 146.838 74.8643 148.558 74.8986C149.264 74.91 149.913 74.7044 150.449 74.3274C150.563 74.2474 150.665 74.1675 150.768 74.0646C150.802 74.0304 150.836 73.9961 150.87 73.9618C151.406 73.4249 151.736 72.7051 151.748 71.894C151.782 70.2032 150.415 68.798 148.683 68.7637H148.695ZM150.244 73.2307C150.164 73.322 150.073 73.4134 149.97 73.4934C149.595 73.7905 149.105 73.9618 148.581 73.9504C147.385 73.9275 146.428 72.9565 146.462 71.7912C146.462 71.2771 146.667 70.8201 146.986 70.4545C147.066 70.3517 147.168 70.2717 147.259 70.1918C147.647 69.8833 148.136 69.7005 148.672 69.7119C149.868 69.7348 150.813 70.7059 150.791 71.8711C150.791 72.3967 150.574 72.8651 150.244 73.2307Z" fill="#CFB37C" />
      <path d="M42.2742 102.329C39.0048 102.26 35.9747 103.38 33.6394 105.288C33.1609 105.676 32.7167 106.087 32.3066 106.533C32.1813 106.67 32.056 106.807 31.9306 106.956C31.6914 107.241 31.4636 107.538 31.2471 107.847C29.846 109.835 29.003 112.234 28.946 114.827C28.798 121.865 34.5279 127.714 41.7274 127.862C44.4956 127.919 47.0815 127.131 49.2345 125.726C49.3826 125.635 49.5193 125.532 49.656 125.44C49.8041 125.338 49.9522 125.223 50.0889 125.12C50.4192 124.869 50.7382 124.595 51.0344 124.309C51.4786 123.887 51.8887 123.441 52.276 122.973C53.962 120.871 54.9986 118.243 55.0556 115.364C55.2037 108.327 49.4737 102.477 42.2742 102.329ZM50.9432 123.041C50.5559 123.464 50.1344 123.852 49.6902 124.218C49.5535 124.332 49.4168 124.435 49.2801 124.538C48.8927 124.823 48.4826 125.098 48.0498 125.338C46.1929 126.389 44.0399 126.971 41.7388 126.926C35.0633 126.788 29.7548 121.373 29.9029 114.85C29.9713 111.902 31.1332 109.218 33.0242 107.184C33.4116 106.761 33.833 106.373 34.2773 106.007C34.414 105.905 34.5507 105.79 34.6874 105.688C35.0747 105.39 35.4848 105.128 35.9177 104.888C37.7745 103.825 39.9389 103.231 42.2514 103.288C48.9155 103.425 54.224 108.841 54.0873 115.353C54.019 118.312 52.8456 121.008 50.9432 123.053V123.041Z" fill="#CFB37C" />
      <path d="M42.2059 105.608C39.5061 105.55 37.0341 106.579 35.2343 108.281C35.0748 108.429 34.9153 108.589 34.7672 108.749C34.7102 108.806 34.6647 108.863 34.6077 108.921C34.5508 108.978 34.5052 109.035 34.4596 109.092C34.3799 109.195 34.2888 109.298 34.209 109.4C33.0129 110.943 32.2952 112.851 32.2497 114.93C32.1357 120.185 36.419 124.549 41.7958 124.663C44.0741 124.709 46.2044 123.989 47.8903 122.721C48.0042 122.641 48.1182 122.55 48.2207 122.459C48.5738 122.173 48.9042 121.864 49.2004 121.533C49.3029 121.43 49.394 121.328 49.4852 121.213C50.8521 119.614 51.6951 117.569 51.7521 115.318C51.866 110.063 47.5828 105.699 42.2059 105.585V105.608ZM48.6194 120.779C48.5283 120.882 48.4371 120.973 48.346 121.065C48.1637 121.259 47.9701 121.442 47.765 121.613C47.6625 121.693 47.56 121.785 47.4574 121.864C45.9082 123.064 43.9374 123.772 41.8186 123.727C36.9772 123.624 33.1154 119.694 33.2179 114.953C33.2635 112.748 34.1634 110.749 35.6102 109.252C35.8152 109.046 36.0203 108.841 36.2481 108.658C37.8315 107.298 39.9276 106.499 42.1945 106.544C47.036 106.647 50.8977 110.577 50.7952 115.307C50.7496 117.398 49.9408 119.305 48.6308 120.768L48.6194 120.779Z" fill="#CFB37C" />
      <path d="M42.1376 108.841C40.3605 108.806 38.7315 109.48 37.5468 110.6L37.524 110.623C36.3506 111.731 35.5988 113.285 35.5646 115.01C35.4849 118.483 38.3214 121.373 41.8756 121.442C43.2198 121.465 44.4843 121.088 45.5323 120.414C45.6804 120.322 45.8285 120.219 45.9652 120.105C46.2955 119.842 46.6031 119.557 46.8765 119.248C46.9904 119.111 47.1043 118.974 47.2068 118.837C47.9473 117.832 48.403 116.609 48.4371 115.284C48.5169 111.811 45.6804 108.932 42.1262 108.852L42.1376 108.841ZM46.2955 118.46C46.25 118.529 46.193 118.597 46.1246 118.654C45.9082 118.906 45.6576 119.134 45.3842 119.34C45.3158 119.397 45.2475 119.442 45.1791 119.488C44.2564 120.139 43.1059 120.516 41.8756 120.482C38.8568 120.425 36.4532 117.969 36.5215 115.01C36.5557 113.627 37.1139 112.371 38.0252 111.445C38.1391 111.331 38.253 111.217 38.3784 111.114C39.3694 110.257 40.6909 109.743 42.1148 109.777C45.1336 109.835 47.5372 112.291 47.4689 115.238C47.4461 116.449 47.0132 117.557 46.2841 118.437L46.2955 118.46Z" fill="#CFB37C" />
      <path d="M42.0692 112.074C41.3174 112.062 40.6111 112.302 40.0643 112.736C39.8934 112.862 39.7453 113.011 39.6086 113.17C39.1644 113.685 38.891 114.347 38.8682 115.078C38.834 116.769 40.2124 118.174 41.9325 118.209C42.6388 118.22 43.2881 118.014 43.8235 117.637C43.9374 117.557 44.04 117.478 44.1425 117.375C44.1767 117.34 44.2108 117.306 44.245 117.272C44.7804 116.735 45.1108 116.015 45.1222 115.204C45.1563 113.513 43.7893 112.108 42.0578 112.074H42.0692ZM43.6185 116.541C43.5387 116.632 43.4476 116.724 43.3451 116.803C42.9692 117.101 42.4793 117.272 41.9553 117.26C40.7592 117.238 39.8023 116.267 39.8365 115.101C39.8365 114.587 40.0415 114.13 40.3605 113.765C40.4402 113.662 40.5427 113.582 40.6339 113.502C41.0212 113.193 41.511 113.011 42.0464 113.022C43.2426 113.045 44.1881 114.016 44.1653 115.181C44.1653 115.707 43.9488 116.175 43.6185 116.541Z" fill="#CFB37C" />
      <path d="M94.22 98.4101C94.22 95.7711 93.8896 93.2006 93.2403 90.7557C93.1377 90.3559 93.0124 89.956 92.8985 89.5562C92.4656 89.4191 92.0442 89.2706 91.6227 89.1106C91.7708 89.5219 91.9075 89.9446 92.0214 90.3673C92.7732 92.9264 93.1605 95.6226 93.1605 98.3987C93.115 114.461 79.7184 127.497 63.2917 127.451C60.0565 127.451 56.9466 126.926 54.0304 125.977C53.5975 125.84 53.176 125.692 52.7545 125.532C52.9026 125.943 53.0393 126.366 53.1532 126.788C53.5519 126.926 53.962 127.063 54.3721 127.177C57.1972 128.022 60.1818 128.479 63.2804 128.479C80.2994 128.525 94.1858 115.021 94.22 98.3873V98.4101Z" fill="#CFB37C" />
      <path d="M90.9278 98.3987C90.9278 95.4283 90.4493 92.5722 89.5494 89.8989C89.2532 90.116 88.957 90.3216 88.6381 90.5273C89.4469 93.0064 89.8797 95.6568 89.8684 98.3987C89.8342 112.691 77.9072 124.286 63.2917 124.241C60.0907 124.241 57.0036 123.67 54.1671 122.63C53.9734 122.927 53.7684 123.224 53.5405 123.51C56.5707 124.641 59.8515 125.269 63.2917 125.28C78.4995 125.315 90.8936 113.25 90.9392 98.3873L90.9278 98.3987Z" fill="#CFB37C" />
      <path d="M86.8269 91.4983C86.5079 91.6354 86.1775 91.7725 85.8358 91.8982C86.4509 93.9432 86.7699 96.1024 86.7585 98.3416C86.7243 110.988 76.1757 121.248 63.2348 121.225C60.535 121.225 57.9378 120.768 55.5227 119.934C55.3974 120.254 55.2721 120.574 55.124 120.893C57.6644 121.773 60.3869 122.253 63.2348 122.264C76.7567 122.299 87.7837 111.571 87.8179 98.353C87.8179 95.9767 87.4762 93.6804 86.8155 91.5097L86.8269 91.4983Z" fill="#CFB37C" />
      <path d="M84.0359 92.4123C83.6941 92.4922 83.3524 92.5494 82.9992 92.6065C83.5233 94.3887 83.808 96.2737 83.7967 98.2159C83.7739 109.332 74.5011 118.346 63.1323 118.311C60.7173 118.311 58.3934 117.889 56.2518 117.135C56.2062 117.477 56.1378 117.82 56.0581 118.152C58.2681 118.906 60.6489 119.317 63.1323 119.328C75.0707 119.363 84.8105 109.88 84.8447 98.2045C84.8447 96.1938 84.5713 94.2402 84.0359 92.4008V92.4123Z" fill="#CFB37C" />
      <path d="M81.1196 65.919C77.8502 65.8505 74.82 66.9701 72.4847 68.8779C72.0063 69.2664 71.562 69.6776 71.1519 70.1232C71.0266 70.2603 70.9013 70.3974 70.776 70.5459C70.5368 70.8315 70.3089 71.1285 70.0925 71.437C68.6913 73.4249 67.8483 75.824 67.7914 78.4173C67.6433 85.4548 73.3733 91.3041 80.5728 91.4526C83.3409 91.5098 85.9268 90.7215 88.0798 89.3163C88.2279 89.2249 88.3646 89.122 88.5013 89.0306C88.6494 88.9278 88.7975 88.8136 88.9342 88.7108C89.2646 88.4594 89.5835 88.1852 89.8797 87.8996C90.324 87.4769 90.7341 87.0314 91.1214 86.563C92.8073 84.4609 93.844 81.8333 93.9009 78.9543C94.049 71.9168 88.319 66.0675 81.1196 65.919ZM89.7886 86.6315C89.4013 87.0542 88.9798 87.4427 88.5355 87.8082C88.3988 87.9225 88.2621 88.0253 88.1254 88.1281C87.7381 88.4137 87.328 88.6879 86.8951 88.9278C85.0383 89.9789 82.8853 90.5615 80.5842 90.5158C73.9087 90.3787 68.6002 84.9636 68.7483 78.4402C68.8166 75.4927 69.9786 72.8079 71.8696 70.7744C72.2569 70.3517 72.6784 69.9633 73.1227 69.5977C73.2594 69.4949 73.3961 69.3806 73.5328 69.2778C73.9201 68.9808 74.3302 68.718 74.763 68.4781C76.6199 67.4156 78.7843 66.8215 81.0968 66.8787C87.7609 67.0158 93.0694 72.4309 92.9327 78.9429C92.8643 81.9018 91.691 84.598 89.7886 86.6429V86.6315Z" fill="#CFB37C" />
      <path d="M81.0513 69.1978C78.3514 69.1407 75.8795 70.1689 74.0796 71.8712C73.9201 72.0197 73.7606 72.1796 73.6125 72.3396C73.5556 72.3967 73.51 72.4538 73.4531 72.5109C73.3961 72.568 73.3505 72.6252 73.305 72.6823C73.2252 72.7851 73.1341 72.8879 73.0543 72.9908C71.8582 74.5331 71.1406 76.4409 71.095 78.5202C70.9811 83.7754 75.2643 88.1396 80.6412 88.2538C82.9195 88.2995 85.0497 87.5798 86.7357 86.3117C86.8496 86.2317 86.9635 86.1403 87.066 86.0489C87.4192 85.7633 87.7495 85.4548 88.0457 85.1235C88.1482 85.0207 88.2394 84.9179 88.3305 84.8036C89.6975 83.2042 90.5405 81.1592 90.5974 78.9086C90.7113 73.6534 86.4281 69.2892 81.0513 69.175V69.1978ZM87.4647 84.3695C87.3736 84.4723 87.2825 84.5637 87.1913 84.6551C87.0091 84.8493 86.8154 85.0321 86.6104 85.2035C86.5078 85.2835 86.4053 85.3748 86.3028 85.4548C84.7535 86.6544 82.7828 87.3627 80.6639 87.317C75.8225 87.2142 71.9608 83.2842 72.0633 78.543C72.1088 76.3381 73.0088 74.3388 74.4555 72.8422C74.6606 72.6366 74.8656 72.431 75.0934 72.2482C76.6769 70.8887 78.7729 70.0889 81.0399 70.1346C85.8813 70.2375 89.7431 74.1675 89.6405 78.8972C89.595 80.9879 88.7862 82.8957 87.4761 84.3581L87.4647 84.3695Z" fill="#CFB37C" />
      <path d="M80.9829 72.431C79.2058 72.3967 77.5768 73.0707 76.3921 74.1903L76.3693 74.2132C75.196 75.3213 74.4441 76.8751 74.41 78.6001C74.3302 82.0732 77.1667 84.9636 80.7209 85.0321C82.0651 85.055 83.3296 84.6779 84.3776 84.0039C84.5257 83.9125 84.6738 83.8097 84.8105 83.6954C85.1409 83.4327 85.4484 83.1471 85.7218 82.8386C85.8357 82.7015 85.9497 82.5644 86.0522 82.4273C86.7926 81.422 87.2483 80.1996 87.2825 78.8743C87.3622 75.4013 84.5257 72.5223 80.9715 72.4424L80.9829 72.431ZM85.1409 82.0503C85.0953 82.1189 85.0383 82.1874 84.97 82.2445C84.7535 82.4959 84.5029 82.7244 84.2295 82.93C84.1612 82.9871 84.0928 83.0328 84.0245 83.0785C83.1018 83.7297 81.9512 84.1067 80.7209 84.0724C77.7021 84.0153 75.2985 81.5591 75.3669 78.6001C75.401 77.2178 75.9592 75.9611 76.8706 75.0357C76.9845 74.9215 77.0984 74.8072 77.2237 74.7044C78.2148 73.8476 79.5362 73.3335 80.9601 73.3678C83.9789 73.4249 86.3825 75.8811 86.3142 78.8286C86.2914 80.0396 85.8585 81.1478 85.1295 82.0275L85.1409 82.0503Z" fill="#CFB37C" />
      <path d="M80.9146 75.6641C80.1627 75.6526 79.4564 75.8925 78.9096 76.3267C78.7388 76.4523 78.5907 76.6009 78.454 76.7608C78.0097 77.2749 77.7363 77.9375 77.7135 78.6687C77.6793 80.3595 79.0577 81.7647 80.7779 81.799C81.4841 81.8104 82.1335 81.6048 82.6689 81.2278C82.7828 81.1478 82.8853 81.0678 82.9878 80.965C83.022 80.9307 83.0562 80.8964 83.0904 80.8622C83.6258 80.3252 83.9561 79.6055 83.9675 78.7943C84.0017 77.1035 82.6347 75.6983 80.9032 75.6641H80.9146ZM82.4638 80.131C82.3841 80.2224 82.2929 80.3138 82.1904 80.3938C81.8145 80.6908 81.3247 80.8622 80.8006 80.8507C79.6045 80.8279 78.6476 79.8568 78.6818 78.6915C78.6818 78.1774 78.8868 77.7205 79.2058 77.3549C79.2856 77.252 79.3881 77.1721 79.4792 77.0921C79.8665 76.7837 80.3564 76.6009 80.8918 76.6123C82.0879 76.6351 83.0334 77.6062 83.0106 78.7715C83.0106 79.297 82.7942 79.7654 82.4638 80.131Z" fill="#CFB37C" />
      <path d="M133.065 62.0004C133.065 59.3614 132.735 56.7909 132.086 54.3461C131.983 53.9462 131.858 53.5464 131.744 53.1465C131.311 53.0094 130.889 52.8609 130.468 52.7009C130.616 53.1122 130.753 53.5349 130.867 53.9576C131.619 56.5167 132.006 59.2129 132.006 61.989C131.96 78.0518 118.564 91.0871 102.137 91.0414C98.9019 91.0414 95.792 90.5158 92.8757 89.5676C92.4428 89.4305 92.0213 89.282 91.5999 89.1221C91.7479 89.5333 91.8846 89.956 91.9986 90.3787C92.3973 90.5158 92.8074 90.6529 93.2175 90.7672C96.0426 91.6126 99.0272 92.0696 102.126 92.0696C119.145 92.1153 133.031 78.6116 133.065 61.9776V62.0004Z" fill="#CFB37C" />
      <path d="M129.773 61.989C129.773 59.0187 129.295 56.1625 128.395 53.4892C128.099 53.7063 127.802 53.9119 127.483 54.1176C128.292 56.5967 128.725 59.2471 128.714 61.989C128.68 76.281 116.753 87.8768 102.137 87.8311C98.936 87.8311 95.8489 87.2599 93.0124 86.2202C92.8187 86.5173 92.6137 86.8143 92.3859 87.0999C95.416 88.2309 98.6968 88.8593 102.137 88.8707C117.345 88.905 129.739 76.8408 129.785 61.9776L129.773 61.989Z" fill="#CFB37C" />
      <path d="M125.672 55.0887C125.353 55.2257 125.023 55.3628 124.681 55.4885C125.296 57.5335 125.615 59.6927 125.604 61.9319C125.57 74.5787 115.021 84.8379 102.08 84.815C99.3804 84.815 96.7831 84.3581 94.3681 83.5241C94.2428 83.844 94.1175 84.1638 93.9694 84.4837C96.5097 85.3634 99.2323 85.8432 102.08 85.8547C115.602 85.8889 126.629 75.1614 126.663 61.9433C126.663 59.567 126.322 57.2707 125.661 55.1001L125.672 55.0887Z" fill="#CFB37C" />
      <path d="M122.881 56.014C122.539 56.094 122.198 56.1511 121.845 56.2082C122.369 57.9904 122.653 59.8755 122.642 61.8176C122.619 72.9336 113.346 81.9475 101.978 81.9132C99.5626 81.9132 97.2387 81.4905 95.0971 80.7365C95.0515 81.0792 94.9832 81.422 94.9034 81.7533C97.1134 82.5073 99.4943 82.9186 101.978 82.93C113.916 82.9643 123.656 73.482 123.69 61.8062C123.69 59.7955 123.417 57.8419 122.881 56.0026V56.014Z" fill="#CFB37C" />
      <path d="M119.976 29.5093C116.707 29.4408 113.677 30.5604 111.342 32.4683C110.863 32.8567 110.419 33.268 110.009 33.7135C109.883 33.8506 109.758 33.9877 109.633 34.1362C109.394 34.4218 109.166 34.7189 108.949 35.0273C107.548 37.0152 106.705 39.4143 106.648 42.0077C106.5 49.0451 112.23 54.8944 119.43 55.0429C122.198 55.1001 124.784 54.3118 126.937 52.9066C127.085 52.8152 127.221 52.7124 127.358 52.621C127.506 52.5181 127.654 52.4039 127.791 52.3011C128.121 52.0497 128.44 51.7756 128.737 51.4899C129.181 51.0672 129.591 50.6217 129.978 50.1533C131.664 48.0512 132.701 45.4236 132.758 42.5446C132.906 35.5072 127.176 29.6578 119.976 29.5093ZM128.645 50.2218C128.258 50.6445 127.837 51.033 127.392 51.3986C127.256 51.5128 127.119 51.6156 126.982 51.7184C126.595 52.004 126.185 52.2782 125.752 52.5181C123.895 53.5692 121.742 54.1518 119.441 54.1061C112.765 53.969 107.457 48.5539 107.605 42.0305C107.673 39.083 108.835 36.3983 110.726 34.3647C111.114 33.942 111.535 33.5536 111.979 33.188C112.116 33.0852 112.253 32.9709 112.39 32.8681C112.777 32.5711 113.187 32.3083 113.62 32.0684C115.477 31.0059 117.641 30.4119 119.954 30.469C126.618 30.6061 131.926 36.0213 131.789 42.5332C131.721 45.4921 130.548 48.1883 128.645 50.2333V50.2218Z" fill="#CFB37C" />
      <path d="M119.908 32.7881C117.208 32.731 114.736 33.7592 112.936 35.4615C112.777 35.61 112.617 35.7699 112.469 35.9299C112.412 35.987 112.367 36.0441 112.31 36.1012C112.253 36.1583 112.207 36.2155 112.162 36.2726C112.082 36.3754 111.991 36.4782 111.911 36.5811C110.715 38.1234 109.997 40.0312 109.952 42.1105C109.838 47.3657 114.121 51.7299 119.498 51.8441C121.776 51.8898 123.906 51.1701 125.592 49.9019C125.706 49.822 125.82 49.7306 125.923 49.6392C126.276 49.3536 126.606 49.0451 126.902 48.7138C127.005 48.611 127.096 48.5082 127.187 48.3939C128.554 46.7945 129.397 44.7495 129.454 42.4989C129.568 37.2437 125.285 32.8795 119.908 32.7653V32.7881ZM126.321 47.9598C126.23 48.0626 126.139 48.154 126.048 48.2454C125.866 48.4396 125.672 48.6224 125.467 48.7938C125.365 48.8737 125.262 48.9651 125.159 49.0451C123.61 50.2447 121.639 50.953 119.521 50.9073C114.679 50.8045 110.817 46.8745 110.92 42.1333C110.966 39.9284 111.865 37.9291 113.312 36.4325C113.517 36.2269 113.722 36.0213 113.95 35.8385C115.534 34.479 117.63 33.6792 119.897 33.7249C124.738 33.8278 128.6 37.7578 128.497 42.4875C128.452 44.5782 127.643 46.486 126.333 47.9484L126.321 47.9598Z" fill="#CFB37C" />
      <path d="M119.828 36.0213C118.051 35.987 116.422 36.661 115.237 37.7806L115.215 37.8035C114.041 38.9116 113.289 40.4654 113.255 42.1905C113.176 45.6635 116.012 48.5539 119.566 48.6224C120.91 48.6453 122.175 48.2683 123.223 47.5942C123.371 47.5028 123.519 47.4 123.656 47.2858C123.986 47.023 124.294 46.7374 124.567 46.4289C124.681 46.2918 124.795 46.1547 124.898 46.0176C125.638 45.0123 126.094 43.7899 126.128 42.4646C126.208 38.9916 123.371 36.1127 119.817 36.0327L119.828 36.0213ZM123.986 45.6406C123.941 45.7092 123.884 45.7777 123.815 45.8349C123.599 46.0862 123.348 46.3147 123.075 46.5203C123.007 46.5775 122.938 46.6231 122.87 46.6688C121.947 47.32 120.797 47.697 119.566 47.6628C116.547 47.6056 114.144 45.1494 114.212 42.1905C114.246 40.8081 114.805 39.5514 115.716 38.626C115.83 38.5118 115.944 38.3976 116.069 38.2947C117.06 37.4379 118.382 36.9238 119.805 36.9581C122.824 37.0152 125.228 39.4714 125.16 42.419C125.137 43.6299 124.704 44.7381 123.975 45.6178L123.986 45.6406Z" fill="#CFB37C" />
      <path d="M119.76 39.2544C119.008 39.2429 118.302 39.4829 117.755 39.917C117.584 40.0427 117.436 40.1912 117.299 40.3511C116.855 40.8652 116.582 41.5278 116.559 42.259C116.525 43.9498 117.903 45.355 119.623 45.3893C120.329 45.4007 120.979 45.1951 121.514 44.8181C121.628 44.7381 121.731 44.6581 121.833 44.5553C121.867 44.521 121.902 44.4868 121.936 44.4525C122.471 43.9155 122.801 43.1958 122.813 42.3847C122.847 40.6938 121.48 39.2886 119.749 39.2544H119.76ZM121.309 43.7213C121.229 43.8127 121.138 43.9041 121.036 43.9841C120.66 44.2811 120.17 44.4525 119.646 44.4411C118.45 44.4182 117.493 43.4471 117.527 42.2818C117.527 41.7677 117.732 41.3108 118.051 40.9452C118.131 40.8424 118.233 40.7624 118.325 40.6824C118.712 40.374 119.202 40.1912 119.737 40.2026C120.933 40.2254 121.879 41.1965 121.856 42.3618C121.856 42.8873 121.64 43.3557 121.309 43.7213Z" fill="#CFB37C" />
      <path d="M13.3396 72.8194C10.0702 72.7508 7.04001 73.8704 4.70473 75.7783C4.22628 76.1667 3.78201 76.578 3.37191 77.0236C3.24661 77.1607 3.1213 77.2978 2.99599 77.4463C2.75677 77.7319 2.52894 78.0289 2.31249 78.3374C0.899936 80.3252 0.0569575 82.7244 -5.1409e-07 85.3177C-0.148091 92.3552 5.58188 98.2045 12.7814 98.353C15.5495 98.4101 18.1354 97.6218 20.2884 96.2166C20.4365 96.1252 20.5732 96.0224 20.7099 95.931C20.858 95.8282 21.0061 95.714 21.1428 95.6111C21.4732 95.3598 21.7921 95.0856 22.0883 94.8C22.5326 94.3773 22.9427 93.9317 23.33 93.4633C25.016 91.3612 26.0526 88.7336 26.1096 85.8547C26.2576 78.8172 20.5277 72.9679 13.3282 72.8194H13.3396ZM22.0086 93.5319C21.6213 93.9546 21.1998 94.343 20.7555 94.7086C20.6188 94.8229 20.4821 94.9257 20.3454 95.0285C19.9581 95.3141 19.548 95.5883 19.1151 95.8282C17.2583 96.8792 15.1053 97.4619 12.8042 97.4162C6.12868 97.2791 0.820195 91.8639 0.968286 85.3406C1.03664 82.3931 2.19858 79.7083 4.08958 77.6748C4.4769 77.2521 4.89839 76.8636 5.34266 76.498C5.47936 76.3952 5.61606 76.281 5.75276 76.1782C6.14007 75.8811 6.55017 75.6184 6.98305 75.3785C8.83988 74.316 11.0043 73.7219 13.3168 73.779C19.9809 73.9161 25.2894 79.3313 25.1527 85.8432C25.0843 88.8022 23.911 91.4983 22.0086 93.5433V93.5319Z" fill="#CFB37C" />
      <path d="M13.2712 76.0982C10.5714 76.0411 8.09944 77.0693 6.29956 78.7715C6.14008 78.92 5.9806 79.08 5.83251 79.2399C5.77555 79.297 5.72998 79.3542 5.67303 79.4113C5.61607 79.4684 5.5705 79.5255 5.52494 79.5826C5.44519 79.6855 5.35406 79.7883 5.27432 79.8911C4.0782 81.4334 3.36053 83.3413 3.31496 85.4205C3.20105 90.6758 7.48429 95.0399 12.8611 95.1542C15.1394 95.1999 17.2697 94.4801 18.9556 93.212C19.0696 93.132 19.1835 93.0406 19.286 92.9492C19.6391 92.6636 19.9695 92.3552 20.2657 92.0239C20.3682 91.921 20.4593 91.8182 20.5505 91.704C21.9175 90.1045 22.7604 88.0596 22.8174 85.809C22.9313 80.5537 18.6481 76.1896 13.2712 76.0753V76.0982ZM19.6847 91.2698C19.5936 91.3727 19.5024 91.4641 19.4113 91.5555C19.229 91.7497 19.0354 91.9325 18.8303 92.1038C18.7278 92.1838 18.6253 92.2752 18.5228 92.3552C16.9735 93.5547 15.0027 94.263 12.8839 94.2174C8.04248 94.1145 4.18073 90.1845 4.28325 85.4434C4.32882 83.2385 5.22875 81.2392 6.67549 79.7426C6.88054 79.5369 7.08559 79.3313 7.31342 79.1485C8.89685 77.789 10.9929 76.9893 13.2598 77.035C18.1013 77.1378 21.963 81.0678 21.8605 85.7975C21.8149 87.8882 21.0061 89.7961 19.6961 91.2584L19.6847 91.2698Z" fill="#CFB37C" />
      <path d="M13.2029 79.3313C11.4258 79.2971 9.7968 79.9711 8.61208 81.0907L8.58929 81.1135C7.41596 82.2217 6.66411 83.7754 6.62994 85.5005C6.5502 88.9735 9.3867 91.8639 12.9409 91.9325C14.2851 91.9553 15.5496 91.5783 16.5976 90.9043C16.7457 90.8129 16.8938 90.7101 17.0305 90.5958C17.3608 90.3331 17.6684 90.0475 17.9418 89.739C18.0557 89.6019 18.1696 89.4648 18.2722 89.3277C19.0126 88.3224 19.4683 87.0999 19.5024 85.7747C19.5822 82.3017 16.7457 79.4227 13.1915 79.3427L13.2029 79.3313ZM17.3608 88.9507C17.3153 89.0192 17.2583 89.0878 17.19 89.1449C16.9735 89.3963 16.7229 89.6247 16.4495 89.8304C16.3811 89.8875 16.3128 89.9332 16.2444 89.9789C15.3217 90.6301 14.1712 91.0071 12.9409 90.9728C9.92211 90.9157 7.51848 88.4594 7.58683 85.5005C7.62101 84.1182 8.17919 82.8615 9.09052 81.9361C9.20444 81.8219 9.31835 81.7076 9.44366 81.6048C10.4347 80.748 11.7562 80.2339 13.1801 80.2681C16.1989 80.3253 18.6025 82.7815 18.5342 85.729C18.5114 86.94 18.0785 88.0482 17.3494 88.9278L17.3608 88.9507Z" fill="#CFB37C" />
      <path d="M13.1345 82.5644C12.3827 82.553 11.6764 82.7929 11.1296 83.227C10.9587 83.3527 10.8106 83.5012 10.6739 83.6612C10.2297 84.1753 9.95627 84.8379 9.93348 85.569C9.89931 87.2599 11.2777 88.6651 12.9978 88.6993C13.7041 88.7108 14.3534 88.5051 14.8888 88.1281C15.0027 88.0481 15.1053 87.9682 15.2078 87.8654C15.242 87.8311 15.2761 87.7968 15.3103 87.7625C15.8457 87.2256 16.1761 86.5059 16.1875 85.6947C16.2216 84.0039 14.8547 82.5987 13.1231 82.5644H13.1345ZM14.6838 87.0314C14.604 87.1228 14.5129 87.2142 14.4104 87.2941C14.0345 87.5912 13.5446 87.7625 13.0206 87.7511C11.8245 87.7283 10.8676 86.7572 10.9018 85.5919C10.9018 85.0778 11.1068 84.6208 11.4258 84.2552C11.5055 84.1524 11.608 84.0724 11.6992 83.9925C12.0865 83.684 12.5763 83.5012 13.1117 83.5126C14.3079 83.5355 15.2534 84.5066 15.2306 85.6719C15.2306 86.1974 15.0141 86.6658 14.6838 87.0314Z" fill="#CFB37C" />
      <path d="M65.2739 68.9008C65.2739 66.2617 64.9436 63.6912 64.2942 61.2464C64.1917 60.8466 64.0664 60.4467 63.9525 60.0468C63.5196 59.9098 63.0981 59.7612 62.6766 59.6013C62.8247 60.0126 62.9614 60.4353 63.0753 60.858C63.8272 63.4171 64.2145 66.1132 64.2145 68.8894C64.1689 84.9521 50.7724 97.9874 34.3457 97.9417C31.1105 97.9417 28.0006 97.4162 25.0843 96.468C24.6515 96.3309 24.23 96.1824 23.8085 96.0224C23.9566 96.4337 24.0933 96.8564 24.2072 97.2791C24.6059 97.4162 25.016 97.5533 25.4261 97.6675C28.2512 98.5129 31.2358 98.9699 34.3343 98.9699C51.3534 99.0156 65.2397 85.5119 65.2739 68.8779V68.9008Z" fill="#CFB37C" />
      <path d="M61.9931 68.8894C61.9931 65.919 61.5146 63.0629 60.6147 60.3896C60.3185 60.6067 60.0223 60.8123 59.7034 61.0179C60.5122 63.497 60.9451 66.1475 60.9337 68.8894C60.8995 83.1813 48.9725 94.7771 34.357 94.7314C31.156 94.7314 28.0689 94.1602 25.2324 93.1206C25.0387 93.4176 24.8337 93.7147 24.6058 94.0003C27.636 95.1313 30.9168 95.7597 34.357 95.7711C49.5648 95.8054 61.9589 83.7411 62.0045 68.8779L61.9931 68.8894Z" fill="#CFB37C" />
      <path d="M57.8807 61.989C57.5617 62.1261 57.2314 62.2632 56.8896 62.3889C57.5048 64.4338 57.8237 66.5931 57.8123 68.8323C57.7782 81.4791 47.2295 91.7383 34.2887 91.7154C31.5889 91.7154 28.9916 91.2584 26.5766 90.4244C26.4513 90.7443 26.3259 91.0642 26.1779 91.3841C28.7182 92.2638 31.4408 92.7436 34.2887 92.755C47.8105 92.7893 58.8376 82.0618 58.8718 68.8437C58.8718 66.4674 58.53 64.1711 57.8693 62.0004L57.8807 61.989Z" fill="#CFB37C" />
      <path d="M55.1012 62.9144C54.7594 62.9944 54.4177 63.0515 54.0646 63.1086C54.5886 64.8908 54.8734 66.7759 54.862 68.718C54.8392 79.834 45.5664 88.8479 34.1976 88.8136C31.7826 88.8136 29.4587 88.3909 27.3171 87.6369C27.2715 87.9796 27.2032 88.3223 27.1234 88.6537C29.3334 89.4077 31.7142 89.8189 34.1976 89.8304C46.136 89.8646 55.8758 80.3824 55.91 68.7066C55.91 66.6959 55.6366 64.7423 55.1012 62.903V62.9144Z" fill="#CFB37C" />
      <path d="M52.185 36.4097C48.9156 36.3411 45.8854 37.4607 43.5502 39.3686C43.0717 39.757 42.6274 40.1683 42.2173 40.6139C42.092 40.751 41.9667 40.8881 41.8414 41.0366C41.6022 41.3222 41.3744 41.6192 41.1579 41.9277C39.7567 43.9155 38.9138 46.3147 38.8568 48.908C38.7087 55.9455 44.4387 61.7948 51.6382 61.9433C54.4064 62.0004 56.9922 61.2121 59.1453 59.8069C59.2933 59.7155 59.43 59.6127 59.5667 59.5213C59.7148 59.4185 59.8629 59.3043 59.9996 59.2014C60.33 58.9501 60.6489 58.6759 60.9451 58.3903C61.3894 57.9676 61.7995 57.522 62.1868 57.0536C63.8728 54.9515 64.9094 52.3239 64.9664 49.445C65.1145 42.4075 59.3845 36.5582 52.185 36.4097ZM60.854 57.1222C60.4667 57.5449 60.0452 57.9333 59.6009 58.2989C59.4642 58.4132 59.3275 58.516 59.1908 58.6188C58.8035 58.9044 58.3934 59.1786 57.9605 59.4185C56.1037 60.4695 53.9507 61.0522 51.6496 61.0065C44.9741 60.8694 39.6656 55.4542 39.8137 48.9309C39.8821 45.9834 41.044 43.2986 42.935 41.2651C43.3223 40.8424 43.7438 40.4539 44.1881 40.0884C44.3248 39.9855 44.4615 39.8713 44.5982 39.7685C44.9855 39.4714 45.3956 39.2087 45.8285 38.9688C47.6853 37.9063 49.8497 37.3122 52.1622 37.3693C58.8263 37.5064 64.1348 42.9216 63.9981 49.4335C63.9297 52.3925 62.7564 55.0886 60.854 57.1336V57.1222Z" fill="#CFB37C" />
      <path d="M52.1166 39.6885C49.4168 39.6314 46.9448 40.6596 45.1449 42.3618C44.9854 42.5103 44.8259 42.6703 44.6778 42.8302C44.6209 42.8873 44.5753 42.9445 44.5184 43.0016C44.4614 43.0587 44.4158 43.1158 44.3703 43.173C44.2905 43.2758 44.1994 43.3786 44.1197 43.4814C42.9235 45.0237 42.2059 46.9316 42.1603 49.0108C42.0464 54.2661 46.3296 58.6302 51.7065 58.7445C53.9848 58.7902 56.115 58.0704 57.801 56.8023C57.9149 56.7223 58.0288 56.6309 58.1313 56.5395C58.4845 56.2539 58.8148 55.9455 59.111 55.6142C59.2135 55.5113 59.3047 55.4085 59.3958 55.2943C60.7628 53.6949 61.6058 51.6499 61.6627 49.3993C61.7766 44.144 57.4934 39.7799 52.1166 39.6656V39.6885ZM58.53 54.8602C58.4389 54.963 58.3478 55.0544 58.2566 55.1458C58.0744 55.34 57.8807 55.5228 57.6757 55.6941C57.5731 55.7741 57.4706 55.8655 57.3681 55.9455C55.8188 57.145 53.8481 57.8534 51.7292 57.8077C46.8878 57.7048 43.0261 53.7748 43.1286 49.0337C43.1742 46.8288 44.0741 44.8295 45.5208 43.3329C45.7259 43.1273 45.9309 42.9216 46.1588 42.7388C47.7422 41.3793 49.8382 40.5796 52.1052 40.6253C56.9466 40.7281 60.8084 44.6581 60.7058 49.3878C60.6603 51.4785 59.8515 53.3864 58.5414 54.8487L58.53 54.8602Z" fill="#CFB37C" />
      <path d="M52.0482 42.9216C50.2711 42.8874 48.6421 43.5614 47.4574 44.681L47.4346 44.7038C46.2613 45.812 45.5094 47.3657 45.4753 49.0908C45.3955 52.5639 48.232 55.4542 51.7862 55.5228C53.1304 55.5456 54.3949 55.1686 55.4429 54.4946C55.591 54.4032 55.7391 54.3004 55.8758 54.1861C56.2062 53.9234 56.5137 53.6378 56.7871 53.3293C56.9011 53.1922 57.015 53.0551 57.1175 52.918C57.8579 51.9127 58.3136 50.6902 58.3478 49.365C58.4275 45.892 55.591 43.013 52.0368 42.9331L52.0482 42.9216ZM56.2062 52.541C56.1606 52.6096 56.1036 52.6781 56.0353 52.7352C55.8188 52.9866 55.5682 53.215 55.2948 53.4207C55.2265 53.4778 55.1581 53.5235 55.0898 53.5692C54.1671 54.2204 53.0165 54.5974 51.7862 54.5631C48.7674 54.506 46.3638 52.0498 46.4322 49.0908C46.4663 47.7085 47.0245 46.4518 47.9359 45.5264C48.0498 45.4122 48.1637 45.2979 48.289 45.1951C49.2801 44.3383 50.6015 43.8242 52.0254 43.8584C55.0442 43.9156 57.4478 46.3718 57.3795 49.3193C57.3567 50.5303 56.9238 51.6385 56.1948 52.5182L56.2062 52.541Z" fill="#CFB37C" />
      <path d="M51.9799 46.1547C51.228 46.1433 50.5217 46.3832 49.9749 46.8173C49.8041 46.943 49.656 47.0915 49.5193 47.2515C49.075 47.7656 48.8016 48.4282 48.7788 49.1594C48.7446 50.8502 50.123 52.2554 51.8432 52.2897C52.5494 52.3011 53.1988 52.0954 53.7342 51.7184C53.8481 51.6385 53.9506 51.5585 54.0531 51.4557C54.0873 51.4214 54.1215 51.3871 54.1557 51.3529C54.6911 50.8159 55.0214 50.0962 55.0328 49.285C55.067 47.5942 53.7 46.189 51.9685 46.1547H51.9799ZM53.5291 50.6217C53.4494 50.7131 53.3582 50.8045 53.2557 50.8844C52.8798 51.1815 52.39 51.3528 51.8659 51.3414C50.6698 51.3186 49.7129 50.3475 49.7471 49.1822C49.7471 48.6681 49.9522 48.2111 50.2711 47.8455C50.3509 47.7427 50.4534 47.6628 50.5445 47.5828C50.9318 47.2743 51.4217 47.0915 51.9571 47.103C53.1532 47.1258 54.0987 48.0969 54.0759 49.2622C54.0759 49.7877 53.8595 50.2561 53.5291 50.6217Z" fill="#CFB37C" />
      <path d="M104.131 32.4911C104.131 29.8521 103.8 27.2816 103.151 24.8367C103.048 24.4369 102.923 24.037 102.809 23.6372C102.376 23.5001 101.955 23.3515 101.533 23.1916C101.681 23.6029 101.818 24.0256 101.932 24.4483C102.684 27.0074 103.071 29.7035 103.071 32.4797C103.026 48.5424 89.6291 61.5777 73.2024 61.532C69.9672 61.532 66.8573 61.0065 63.941 60.0583C63.5081 59.9212 63.0867 59.7727 62.6652 59.6127C62.8133 60.024 62.95 60.4467 63.0639 60.8694C63.4626 61.0065 63.8727 61.1436 64.2828 61.2578C67.1079 62.1032 70.0925 62.5602 73.191 62.5602C90.2101 62.6059 104.096 49.1022 104.131 32.4683V32.4911Z" fill="#CFB37C" />
      <path d="M100.839 32.4797C100.839 29.5093 100.36 26.6532 99.4602 23.9799C99.164 24.197 98.8678 24.4026 98.5488 24.6082C99.3576 27.0874 99.7905 29.7378 99.7791 32.4797C99.7449 46.7717 87.8179 58.3675 73.2025 58.3218C70.0015 58.3218 66.9143 57.7505 64.0778 56.7109C63.8842 57.008 63.6791 57.305 63.4513 57.5906C66.4815 58.7216 69.7622 59.35 73.2025 59.3614C88.4103 59.3957 100.804 47.3315 100.85 32.4683L100.839 32.4797Z" fill="#CFB37C" />
      <path d="M96.7375 25.5907C96.4185 25.7278 96.0882 25.8649 95.7464 25.9906C96.3616 28.0356 96.6805 30.1948 96.6692 32.434C96.635 45.0808 86.0864 55.34 73.1455 55.3171C70.4457 55.3171 67.8484 54.8602 65.4334 54.0262C65.3081 54.3461 65.1828 54.6659 65.0347 54.9858C67.575 55.8655 70.2976 56.3453 73.1455 56.3568C86.6673 56.391 97.6944 45.6635 97.7286 32.4454C97.7286 30.0691 97.3868 27.7728 96.7261 25.6022L96.7375 25.5907Z" fill="#CFB37C" />
      <path d="M93.9465 26.5047C93.6048 26.5847 93.263 26.6418 92.9099 26.6989C93.4339 28.4811 93.7187 30.3662 93.7073 32.3083C93.6845 43.4243 84.4118 52.4382 73.0429 52.4039C70.6279 52.4039 68.304 51.9812 66.1624 51.2272C66.1168 51.5699 66.0485 51.9126 65.9688 52.244C68.1787 52.998 70.5596 53.4092 73.0429 53.4207C84.9813 53.4549 94.7212 43.9727 94.7553 32.2969C94.7553 30.2862 94.4819 28.3326 93.9465 26.4933V26.5047Z" fill="#CFB37C" />
      <path d="M91.0417 1.64378e-07C87.7723 -0.0685465 84.7421 1.05105 82.4068 2.95893C81.9284 3.34736 81.4841 3.75864 81.074 4.20419C80.9487 4.34129 80.8234 4.47838 80.6981 4.6269C80.4589 4.91251 80.231 5.20954 80.0146 5.518C78.6134 7.50586 77.7705 9.90499 77.7135 12.4983C77.5654 19.5358 83.2954 25.3851 90.4949 25.5336C93.263 25.5907 95.8489 24.8025 98.0019 23.3973C98.15 23.3059 98.2867 23.203 98.4234 23.1116C98.5715 23.0088 98.7196 22.8946 98.8563 22.7918C99.1867 22.5404 99.5056 22.2662 99.8018 21.9806C100.246 21.5579 100.656 21.1124 101.044 20.644C102.729 18.5419 103.766 15.9142 103.823 13.0353C103.971 5.99783 98.2412 0.148518 91.0417 1.64378e-07ZM99.7107 20.7125C99.3234 21.1352 98.9019 21.5236 98.4576 21.8892C98.3209 22.0035 98.1842 22.1063 98.0475 22.2091C97.6602 22.4947 97.2501 22.7689 96.8172 23.0088C94.9604 24.0599 92.8074 24.6425 90.5063 24.5968C83.8308 24.4597 78.5223 19.0445 78.6704 12.5212C78.7387 9.57368 79.9007 6.88894 81.7917 4.85539C82.179 4.43268 82.6005 4.04425 83.0448 3.67867C83.1815 3.57585 83.3182 3.46161 83.4549 3.35879C83.8422 3.06175 84.2523 2.79899 84.6852 2.55907C86.542 1.4966 88.7064 0.902531 91.0189 0.959653C97.683 1.09675 102.991 6.51193 102.855 13.0239C102.786 15.9828 101.613 18.679 99.7107 20.7239V20.7125Z" fill="#CFB37C" />
      <path d="M90.9619 3.29024C88.2621 3.23312 85.7901 4.26132 83.9902 5.96356C83.8308 6.11208 83.6713 6.27202 83.5232 6.43196C83.4662 6.48909 83.4207 6.54621 83.3637 6.60333C83.3067 6.66045 83.2612 6.71758 83.2156 6.7747C83.1359 6.87752 83.0447 6.98034 82.965 7.08316C81.7689 8.62546 81.0512 10.5333 81.0056 12.6126C80.8917 17.8678 85.175 22.232 90.5518 22.3462C92.8301 22.3919 94.9603 21.6722 96.6463 20.4041C96.7602 20.3241 96.8741 20.2327 96.9767 20.1413C97.3298 19.8557 97.6602 19.5472 97.9563 19.2159C98.0589 19.1131 98.15 19.0103 98.2411 18.896C99.6081 17.2966 100.451 15.2516 100.508 13.001C100.622 7.74578 96.3387 3.38164 90.9619 3.2674V3.29024ZM97.3754 18.4619C97.2842 18.5647 97.1931 18.6561 97.102 18.7475C96.9197 18.9417 96.7261 19.1245 96.521 19.2959C96.4185 19.3759 96.316 19.4673 96.2134 19.5472C94.6642 20.7468 92.6934 21.4551 90.5746 21.4094C85.7332 21.3066 81.8714 17.3766 81.9739 12.6354C82.0195 10.4305 82.9194 8.43124 84.3662 6.93464C84.5712 6.729 84.7763 6.52336 85.0041 6.34057C86.5875 4.98106 88.6836 4.18135 90.9505 4.22705C95.7919 4.32987 99.6537 8.25988 99.5512 12.9896C99.5056 15.0803 98.6968 16.9881 97.3868 18.4505L97.3754 18.4619Z" fill="#CFB37C" />
      <path d="M90.8936 6.51193C89.1165 6.47766 87.4875 7.1517 86.3028 8.27129L86.28 8.29414C85.1066 9.40231 84.3548 10.956 84.3206 12.6811C84.2409 16.1542 87.0774 19.0445 90.6316 19.1131C91.9758 19.1359 93.2402 18.7589 94.2883 18.0849C94.4364 17.9935 94.5844 17.8907 94.7211 17.7764C95.0515 17.5137 95.3591 17.2281 95.6325 16.9196C95.7464 16.7825 95.8603 16.6454 95.9628 16.5083C96.7033 15.503 97.1589 14.2805 97.1931 12.9553C97.2729 9.48228 94.4364 6.60332 90.8822 6.52335L90.8936 6.51193ZM95.0515 16.1313C95.0059 16.1999 94.949 16.2684 94.8806 16.3255C94.6642 16.5769 94.4136 16.8053 94.1402 17.011C94.0718 17.0681 94.0035 17.1138 93.9351 17.1595C93.0124 17.8107 91.8619 18.1877 90.6316 18.1534C87.6128 18.0963 85.2092 15.6401 85.2775 12.6811C85.3117 11.2988 85.8699 10.0421 86.7812 9.1167C86.8951 9.00246 87.009 8.88821 87.1343 8.78539C88.1254 7.92856 89.4468 7.41446 90.8708 7.44873C93.8896 7.50586 96.2932 9.96211 96.2248 12.9096C96.2021 14.1206 95.7692 15.2288 95.0401 16.1085L95.0515 16.1313Z" fill="#CFB37C" />
      <path d="M90.8252 9.75646C90.0734 9.74504 89.3671 9.98495 88.8203 10.4191C88.6494 10.5447 88.5013 10.6933 88.3646 10.8532C87.9203 11.3673 87.6469 12.0299 87.6242 12.7611C87.59 14.4519 88.9684 15.8571 90.6885 15.8914C91.3948 15.9028 92.0441 15.6972 92.5795 15.3202C92.6934 15.2402 92.796 15.1602 92.8985 15.0574C92.9326 15.0231 92.9668 14.9889 93.001 14.9546C93.5364 14.4176 93.8668 13.6979 93.8782 12.8868C93.9123 11.1959 92.5453 9.79074 90.8138 9.75646H90.8252ZM92.3745 14.2234C92.2947 14.3148 92.2036 14.4062 92.1011 14.4862C91.7251 14.7832 91.2353 14.9546 90.7113 14.9432C89.5152 14.9203 88.5583 13.9492 88.5924 12.7839C88.5924 12.2698 88.7975 11.8129 89.1165 11.4473C89.1962 11.3445 89.2987 11.2645 89.3899 11.1845C89.7772 10.8761 90.267 10.6933 90.8024 10.7047C91.9985 10.7275 92.944 11.6986 92.9213 12.8639C92.9213 13.3894 92.7048 13.8578 92.3745 14.2234Z" fill="#CFB37C" />
    </g>
  </g>
  <defs>
    <filter id="filter0_f_0_1" x="-197" y="-45" width="655.191" height="397.393" filterUnits="userSpaceOnUse" color-interpolation-filters="sRGB">
      <feFlood flood-opacity="0" result="BackgroundImageFix" />
      <feBlend mode="normal" in="SourceGraphic" in2="BackgroundImageFix" result="shape" />
      <feGaussianBlur stdDeviation="50" result="effect1_foregroundBlur_0_1" />
    </filter>
    <clipPath id="clip0_0_1">
      <rect width="1440" height="6066" fill="white" transform="translate(-1160 -2492)" />
    </clipPath>
    <clipPath id="clip1_0_1">
      <rect width="162" height="158" fill="white" />
    </clipPath>
  </defs>
</svg>